# xmcd
# 
# Track frame offsets:
#     150
#     17875
#     34762
#     52725
#     72537
#     97437
#     118525
#     154162
#     166637
#     184337
#     198212
# 
# Disc length: 2948
# 
# Revision: 0
# Processed by: cddbd v1.5.2PL0 Copyright (c) Steve Scherf et al.
# Submitted via: fre:ac v1.0.17
# 
DISCID=920b820b
DTITLE=Lil V and the Heartstoppers - Critical Condition
DYEAR=1993
DGENRE=Blues
TTITLE0=Want Me Too
TTITLE1=Out The Door Blues
TTITLE2=Sorry, Sorry Baby
TTITLE3=Critical Condition
TTITLE4=Evil Headed Woman
TTITLE5=The H Train
TTITLE6=Move Away
TTITLE7=Sidetracked
TTITLE8=Want You Too
TTITLE9=Blues Don't Change
TTITLE10=Vaughan (But Not Forgotten)
EXTD=Words and Music by Dave Vitallo 1993\nArranged by 'Lil V and the Heartsoppers
EXTT0=
EXTT1=
EXTT2=
EXTT3=
EXTT4=
EXTT5=
EXTT6=
EXTT7=
EXTT8=
EXTT9=
EXTT10=
PLAYORDER=
